<?xml version="1.0" encoding="utf-8"?>
<!-- Generator: Adobe Illustrator 28.3.0, SVG Export Plug-In . SVG Version: 6.00 Build 0)  -->
<svg version="1.1" id="Layer_1" xmlns="http://www.w3.org/2000/svg" xmlns:xlink="http://www.w3.org/1999/xlink" x="0px" y="0px"
	 viewBox="0 0 674 674" style="enable-background:new 0 0 674 674;" xml:space="preserve">
<style type="text/css">
	.st0{fill:#FFFFFF;}
</style>
<g>
	<path class="st0" d="M337,673c-89.75,0-174.13-34.95-237.59-98.41S1,426.75,1,337S35.95,162.87,99.41,99.41S247.25,1,337,1
		s174.13,34.95,237.59,98.41S673,247.25,673,337s-34.95,174.13-98.41,237.59S426.75,673,337,673L337,673z"/>
	<path d="M337,2c45.23,0,89.1,8.86,130.4,26.33c39.89,16.87,75.72,41.03,106.48,71.79c30.77,30.77,54.92,66.59,71.79,106.48
		C663.14,247.9,672,291.77,672,337s-8.86,89.1-26.33,130.4c-16.87,39.89-41.03,75.72-71.79,106.48
		c-30.77,30.77-66.59,54.92-106.48,71.79C426.1,663.14,382.23,672,337,672s-89.1-8.86-130.4-26.33
		c-39.89-16.87-75.72-41.03-106.48-71.79C69.35,543.11,45.2,507.29,28.33,467.4C10.86,426.1,2,382.23,2,337s8.86-89.1,26.33-130.4
		c16.87-39.89,41.03-75.72,71.79-106.48c30.77-30.77,66.59-54.92,106.48-71.79C247.9,10.86,291.77,2,337,2 M337,0
		C150.88,0,0,150.88,0,337s150.88,337,337,337s337-150.88,337-337S523.12,0,337,0L337,0z"/>
</g>
<g>
	<path d="M167,237c-12.13,0-22-9.87-22-22s9.87-22,22-22h341c12.13,0,22,9.87,22,22s-9.87,22-22,22H167z"/>
	<path d="M508,194c11.58,0,21,9.42,21,21s-9.42,21-21,21H167c-11.58,0-21-9.42-21-21s9.42-21,21-21H508 M508,192H167
		c-12.7,0-23,10.3-23,23l0,0c0,12.7,10.3,23,23,23h341c12.7,0,23-10.3,23-23l0,0C531,202.3,520.7,192,508,192L508,192z"/>
</g>
<g>
	<path d="M167,382c-12.13,0-22-9.87-22-22s9.87-22,22-22h341c12.13,0,22,9.87,22,22s-9.87,22-22,22H167z"/>
	<path d="M508,339c11.58,0,21,9.42,21,21s-9.42,21-21,21H167c-11.58,0-21-9.42-21-21s9.42-21,21-21H508 M508,337H167
		c-12.7,0-23,10.3-23,23l0,0c0,12.7,10.3,23,23,23h341c12.7,0,23-10.3,23-23l0,0C531,347.3,520.7,337,508,337L508,337z"/>
</g>
<g>
	<path d="M167,527c-12.13,0-22-9.87-22-22s9.87-22,22-22h341c12.13,0,22,9.87,22,22s-9.87,22-22,22H167z"/>
	<path d="M508,484c11.58,0,21,9.42,21,21c0,11.58-9.42,21-21,21H167c-11.58,0-21-9.42-21-21s9.42-21,21-21H508 M508,482H167
		c-12.7,0-23,10.3-23,23l0,0c0,12.7,10.3,23,23,23h341c12.7,0,23-10.3,23-23l0,0C531,492.3,520.7,482,508,482L508,482z"/>
</g>
</svg>
